M48
; DRILL file {KiCad (5.1.9)-1} date 12/26/21 22:52:55
; FORMAT={-:-/ absolute / inch / decimal}
; #@! TF.CreationDate,2021-12-26T22:52:55-06:00
; #@! TF.GenerationSoftware,Kicad,Pcbnew,(5.1.9)-1
; #@! TF.FileFunction,Plated,1,2,PTH
FMAT,2
INCH
T1C0.0157
T2C0.0394
T3C0.0433
%
G90
G05
T1
X5.8285Y-3.5601
X6.0624Y-4.2564
X6.1354Y-4.1878
X6.2026Y-3.6818
X6.2026Y-4.1642
T2
X5.6177Y-4.4094
X5.6964Y-4.4094
X5.7752Y-4.4094
X5.8539Y-4.4094
X5.9327Y-4.4094
X6.0114Y-4.4094
X6.0901Y-4.4094
X6.1689Y-4.4094
X6.2476Y-4.4094
X6.3264Y-4.4094
X6.4051Y-4.4094
T3
X5.7032Y-3.0416
X5.7032Y-3.1416
X5.7032Y-3.2416
X5.7032Y-3.3416
X5.7032Y-3.4416
X5.7032Y-3.5416
X5.7032Y-3.6416
X5.7032Y-3.7416
X5.7032Y-3.8416
X5.7032Y-3.9416
X5.7032Y-4.0416
X5.7032Y-4.1416
X6.3032Y-3.0416
X6.3032Y-3.1416
X6.3032Y-3.2416
X6.3032Y-3.3416
X6.3032Y-3.4416
X6.3032Y-3.5416
X6.3032Y-3.6416
X6.3032Y-3.7416
X6.3032Y-3.8416
X6.3032Y-3.9416
X6.3032Y-4.0416
X6.3032Y-4.1416
T0
M30
