%TF.GenerationSoftware,KiCad,Pcbnew,(5.1.9)-1*%
%TF.CreationDate,2021-12-26T22:52:53-06:00*%
%TF.ProjectId,Saturn for MISTER,53617475-726e-4206-966f-72204d495354,rev?*%
%TF.SameCoordinates,Original*%
%TF.FileFunction,Copper,L2,Bot*%
%TF.FilePolarity,Positive*%
%FSLAX46Y46*%
G04 Gerber Fmt 4.6, Leading zero omitted, Abs format (unit mm)*
G04 Created by KiCad (PCBNEW (5.1.9)-1) date 2021-12-26 22:52:53*
%MOMM*%
%LPD*%
G01*
G04 APERTURE LIST*
%TA.AperFunction,ComponentPad*%
%ADD10O,1.500000X2.000000*%
%TD*%
%TA.AperFunction,ComponentPad*%
%ADD11C,1.600000*%
%TD*%
%TA.AperFunction,ComponentPad*%
%ADD12R,1.600000X1.600000*%
%TD*%
%TA.AperFunction,ViaPad*%
%ADD13C,0.800000*%
%TD*%
%TA.AperFunction,Conductor*%
%ADD14C,0.500000*%
%TD*%
%TA.AperFunction,Conductor*%
%ADD15C,0.254000*%
%TD*%
%TA.AperFunction,Conductor*%
%ADD16C,0.100000*%
%TD*%
G04 APERTURE END LIST*
D10*
%TO.P,Saturn1,1*%
%TO.N,GND*%
X142689560Y-112000000D03*
%TO.P,Saturn1,2*%
%TO.N,+5V*%
X144689560Y-112000000D03*
%TO.P,Saturn1,3*%
%TO.N,/DATA1*%
X146689560Y-112000000D03*
%TO.P,Saturn1,4*%
%TO.N,/DATA0*%
X148689560Y-112000000D03*
%TO.P,Saturn1,5*%
%TO.N,/SEL1*%
X150689560Y-112000000D03*
%TO.P,Saturn1,6*%
%TO.N,/SEL0*%
X152689560Y-112000000D03*
%TO.P,Saturn1,7*%
%TO.N,/TL*%
X154689560Y-112000000D03*
%TO.P,Saturn1,8*%
%TO.N,/DATA3*%
X156689560Y-112000000D03*
%TO.P,Saturn1,9*%
%TO.N,/DATA2*%
X158689560Y-112000000D03*
%TO.P,Saturn1,10*%
%TO.N,GND*%
X160689560Y-112000000D03*
%TO.P,Saturn1,11*%
X162689560Y-112000000D03*
%TD*%
D11*
%TO.P,U1,24*%
%TO.N,Net-(U1-Pad24)*%
X160101280Y-77256640D03*
%TO.P,U1,23*%
%TO.N,GND*%
X160101280Y-79796640D03*
%TO.P,U1,22*%
%TO.N,Net-(U1-Pad22)*%
X160101280Y-82336640D03*
%TO.P,U1,21*%
%TO.N,+5V*%
X160101280Y-84876640D03*
%TO.P,U1,20*%
%TO.N,Net-(U1-Pad20)*%
X160101280Y-87416640D03*
%TO.P,U1,19*%
%TO.N,Net-(U1-Pad19)*%
X160101280Y-89956640D03*
%TO.P,U1,18*%
%TO.N,Net-(U1-Pad18)*%
X160101280Y-92496640D03*
%TO.P,U1,17*%
%TO.N,Net-(U1-Pad17)*%
X160101280Y-95036640D03*
%TO.P,U1,16*%
%TO.N,/SEL1*%
X160101280Y-97576640D03*
%TO.P,U1,15*%
%TO.N,/SEL0*%
X160101280Y-100116640D03*
%TO.P,U1,14*%
%TO.N,Net-(U1-Pad14)*%
X160101280Y-102656640D03*
%TO.P,U1,13*%
%TO.N,Net-(U1-Pad13)*%
X160101280Y-105196640D03*
%TO.P,U1,12*%
%TO.N,Net-(U1-Pad12)*%
X144861280Y-105196640D03*
%TO.P,U1,11*%
%TO.N,Net-(U1-Pad11)*%
X144861280Y-102656640D03*
%TO.P,U1,10*%
%TO.N,Net-(U1-Pad10)*%
X144861280Y-100116640D03*
%TO.P,U1,9*%
%TO.N,Net-(U1-Pad9)*%
X144861280Y-97576640D03*
%TO.P,U1,8*%
%TO.N,Net-(U1-Pad8)*%
X144861280Y-95036640D03*
%TO.P,U1,7*%
%TO.N,/TL*%
X144861280Y-92496640D03*
%TO.P,U1,6*%
%TO.N,/DATA0*%
X144861280Y-89956640D03*
%TO.P,U1,5*%
%TO.N,/DATA1*%
X144861280Y-87416640D03*
%TO.P,U1,4*%
%TO.N,GND*%
X144861280Y-84876640D03*
%TO.P,U1,3*%
X144861280Y-82336640D03*
%TO.P,U1,2*%
%TO.N,/DATA2*%
X144861280Y-79796640D03*
D12*
%TO.P,U1,1*%
%TO.N,/DATA3*%
X144861280Y-77256640D03*
%TD*%
D13*
%TO.N,/TL*%
X153984960Y-108112560D03*
%TO.N,/DATA0*%
X148043900Y-90426540D03*
%TO.N,/DATA2*%
X157546040Y-93517720D03*
X157546040Y-105770680D03*
%TO.N,/DATA3*%
X155839160Y-106370120D03*
%TD*%
D14*
%TO.N,/SEL1*%
X150689560Y-112000000D02*
X150689560Y-107678358D01*
X150689560Y-107678358D02*
X160101280Y-98266638D01*
X160101280Y-98266638D02*
X160101280Y-97576640D01*
%TO.N,/SEL0*%
X160101280Y-100116640D02*
X152689560Y-107528360D01*
X152689560Y-107528360D02*
X152689560Y-112000000D01*
%TO.N,/TL*%
X153984960Y-108112560D02*
X153984960Y-108112560D01*
X154689560Y-108817160D02*
X153984960Y-108112560D01*
X154689560Y-112000000D02*
X154689560Y-108817160D01*
%TO.N,/DATA0*%
X148043900Y-90426540D02*
X147919440Y-90302080D01*
X148689560Y-91072200D02*
X148043900Y-90426540D01*
X148689560Y-112000000D02*
X148689560Y-91072200D01*
%TO.N,/DATA1*%
X146689560Y-112000000D02*
X146689560Y-89244920D01*
X146689560Y-89244920D02*
X144861280Y-87416640D01*
%TO.N,/DATA2*%
X157546040Y-93517720D02*
X157546040Y-92481400D01*
X157546040Y-92481400D02*
X144861280Y-79796640D01*
X157546040Y-105770680D02*
X157535880Y-105760520D01*
X158689560Y-106914200D02*
X157546040Y-105770680D01*
X158689560Y-112000000D02*
X158689560Y-106914200D01*
%TO.N,/DATA3*%
X155839160Y-106370120D02*
X155839160Y-106370120D01*
X156689560Y-107220520D02*
X155839160Y-106370120D01*
X156689560Y-112000000D02*
X156689560Y-107220520D01*
%TD*%
D15*
%TO.N,GND*%
X163359190Y-110527713D02*
X163133796Y-110426513D01*
X163030745Y-110407682D01*
X162816560Y-110530344D01*
X162816560Y-111873000D01*
X162836560Y-111873000D01*
X162836560Y-112127000D01*
X162816560Y-112127000D01*
X162816560Y-112147000D01*
X162562560Y-112147000D01*
X162562560Y-112127000D01*
X160816560Y-112127000D01*
X160816560Y-112147000D01*
X160562560Y-112147000D01*
X160562560Y-112127000D01*
X160542560Y-112127000D01*
X160542560Y-111873000D01*
X160562560Y-111873000D01*
X160562560Y-110530344D01*
X160816560Y-110530344D01*
X160816560Y-111873000D01*
X162562560Y-111873000D01*
X162562560Y-110530344D01*
X162348375Y-110407682D01*
X162245324Y-110426513D01*
X161995660Y-110538610D01*
X161772663Y-110697260D01*
X161689560Y-110785384D01*
X161606457Y-110697260D01*
X161383460Y-110538610D01*
X161133796Y-110426513D01*
X161030745Y-110407682D01*
X160816560Y-110530344D01*
X160562560Y-110530344D01*
X160348375Y-110407682D01*
X160245324Y-110426513D01*
X159995660Y-110538610D01*
X159772663Y-110697260D01*
X159689589Y-110785353D01*
X159673640Y-110765919D01*
X159574560Y-110684606D01*
X159574560Y-106957665D01*
X159578841Y-106914199D01*
X159574560Y-106870733D01*
X159574560Y-106870723D01*
X159561755Y-106740710D01*
X159511149Y-106573887D01*
X159464155Y-106485966D01*
X159682706Y-106576493D01*
X159959945Y-106631640D01*
X160242615Y-106631640D01*
X160519854Y-106576493D01*
X160781007Y-106468320D01*
X161016039Y-106311277D01*
X161215917Y-106111399D01*
X161372960Y-105876367D01*
X161481133Y-105615214D01*
X161536280Y-105337975D01*
X161536280Y-105055305D01*
X161481133Y-104778066D01*
X161372960Y-104516913D01*
X161215917Y-104281881D01*
X161016039Y-104082003D01*
X160783521Y-103926640D01*
X161016039Y-103771277D01*
X161215917Y-103571399D01*
X161372960Y-103336367D01*
X161481133Y-103075214D01*
X161536280Y-102797975D01*
X161536280Y-102515305D01*
X161481133Y-102238066D01*
X161372960Y-101976913D01*
X161215917Y-101741881D01*
X161016039Y-101542003D01*
X160783521Y-101386640D01*
X161016039Y-101231277D01*
X161215917Y-101031399D01*
X161372960Y-100796367D01*
X161481133Y-100535214D01*
X161536280Y-100257975D01*
X161536280Y-99975305D01*
X161481133Y-99698066D01*
X161372960Y-99436913D01*
X161215917Y-99201881D01*
X161016039Y-99002003D01*
X160783521Y-98846640D01*
X161016039Y-98691277D01*
X161215917Y-98491399D01*
X161372960Y-98256367D01*
X161481133Y-97995214D01*
X161536280Y-97717975D01*
X161536280Y-97435305D01*
X161481133Y-97158066D01*
X161372960Y-96896913D01*
X161215917Y-96661881D01*
X161016039Y-96462003D01*
X160783521Y-96306640D01*
X161016039Y-96151277D01*
X161215917Y-95951399D01*
X161372960Y-95716367D01*
X161481133Y-95455214D01*
X161536280Y-95177975D01*
X161536280Y-94895305D01*
X161481133Y-94618066D01*
X161372960Y-94356913D01*
X161215917Y-94121881D01*
X161016039Y-93922003D01*
X160783521Y-93766640D01*
X161016039Y-93611277D01*
X161215917Y-93411399D01*
X161372960Y-93176367D01*
X161481133Y-92915214D01*
X161536280Y-92637975D01*
X161536280Y-92355305D01*
X161481133Y-92078066D01*
X161372960Y-91816913D01*
X161215917Y-91581881D01*
X161016039Y-91382003D01*
X160783521Y-91226640D01*
X161016039Y-91071277D01*
X161215917Y-90871399D01*
X161372960Y-90636367D01*
X161481133Y-90375214D01*
X161536280Y-90097975D01*
X161536280Y-89815305D01*
X161481133Y-89538066D01*
X161372960Y-89276913D01*
X161215917Y-89041881D01*
X161016039Y-88842003D01*
X160783521Y-88686640D01*
X161016039Y-88531277D01*
X161215917Y-88331399D01*
X161372960Y-88096367D01*
X161481133Y-87835214D01*
X161536280Y-87557975D01*
X161536280Y-87275305D01*
X161481133Y-86998066D01*
X161372960Y-86736913D01*
X161215917Y-86501881D01*
X161016039Y-86302003D01*
X160783521Y-86146640D01*
X161016039Y-85991277D01*
X161215917Y-85791399D01*
X161372960Y-85556367D01*
X161481133Y-85295214D01*
X161536280Y-85017975D01*
X161536280Y-84735305D01*
X161481133Y-84458066D01*
X161372960Y-84196913D01*
X161215917Y-83961881D01*
X161016039Y-83762003D01*
X160783521Y-83606640D01*
X161016039Y-83451277D01*
X161215917Y-83251399D01*
X161372960Y-83016367D01*
X161481133Y-82755214D01*
X161536280Y-82477975D01*
X161536280Y-82195305D01*
X161481133Y-81918066D01*
X161372960Y-81656913D01*
X161215917Y-81421881D01*
X161016039Y-81222003D01*
X160782152Y-81065725D01*
X160842794Y-81033311D01*
X160914377Y-80789342D01*
X160101280Y-79976245D01*
X159288183Y-80789342D01*
X159359766Y-81033311D01*
X159424272Y-81063834D01*
X159421553Y-81064960D01*
X159186521Y-81222003D01*
X158986643Y-81421881D01*
X158829600Y-81656913D01*
X158721427Y-81918066D01*
X158666280Y-82195305D01*
X158666280Y-82477975D01*
X158721427Y-82755214D01*
X158829600Y-83016367D01*
X158986643Y-83251399D01*
X159186521Y-83451277D01*
X159419039Y-83606640D01*
X159186521Y-83762003D01*
X158986643Y-83961881D01*
X158829600Y-84196913D01*
X158721427Y-84458066D01*
X158666280Y-84735305D01*
X158666280Y-85017975D01*
X158721427Y-85295214D01*
X158829600Y-85556367D01*
X158986643Y-85791399D01*
X159186521Y-85991277D01*
X159419039Y-86146640D01*
X159186521Y-86302003D01*
X158986643Y-86501881D01*
X158829600Y-86736913D01*
X158721427Y-86998066D01*
X158666280Y-87275305D01*
X158666280Y-87557975D01*
X158721427Y-87835214D01*
X158829600Y-88096367D01*
X158986643Y-88331399D01*
X159186521Y-88531277D01*
X159419039Y-88686640D01*
X159186521Y-88842003D01*
X158986643Y-89041881D01*
X158829600Y-89276913D01*
X158721427Y-89538066D01*
X158666280Y-89815305D01*
X158666280Y-90097975D01*
X158721427Y-90375214D01*
X158829600Y-90636367D01*
X158986643Y-90871399D01*
X159186521Y-91071277D01*
X159419039Y-91226640D01*
X159186521Y-91382003D01*
X158986643Y-91581881D01*
X158829600Y-91816913D01*
X158721427Y-92078066D01*
X158666280Y-92355305D01*
X158666280Y-92637975D01*
X158721427Y-92915214D01*
X158829600Y-93176367D01*
X158986643Y-93411399D01*
X159186521Y-93611277D01*
X159419039Y-93766640D01*
X159186521Y-93922003D01*
X158986643Y-94121881D01*
X158829600Y-94356913D01*
X158721427Y-94618066D01*
X158666280Y-94895305D01*
X158666280Y-95177975D01*
X158721427Y-95455214D01*
X158829600Y-95716367D01*
X158986643Y-95951399D01*
X159186521Y-96151277D01*
X159419039Y-96306640D01*
X159186521Y-96462003D01*
X158986643Y-96661881D01*
X158829600Y-96896913D01*
X158721427Y-97158066D01*
X158666280Y-97435305D01*
X158666280Y-97717975D01*
X158721427Y-97995214D01*
X158829600Y-98256367D01*
X158841765Y-98274574D01*
X150094512Y-107021828D01*
X150060744Y-107049541D01*
X150033031Y-107083309D01*
X150033028Y-107083312D01*
X149950150Y-107184299D01*
X149867972Y-107338045D01*
X149817365Y-107504868D01*
X149800279Y-107678358D01*
X149804561Y-107721837D01*
X149804560Y-110684605D01*
X149705479Y-110765920D01*
X149689560Y-110785317D01*
X149673640Y-110765919D01*
X149574560Y-110684606D01*
X149574560Y-91115665D01*
X149578841Y-91072199D01*
X149574560Y-91028733D01*
X149574560Y-91028723D01*
X149561755Y-90898710D01*
X149511149Y-90731887D01*
X149428971Y-90578141D01*
X149318377Y-90443383D01*
X149284609Y-90415670D01*
X149050435Y-90181496D01*
X149039126Y-90124642D01*
X148961105Y-89936284D01*
X148847837Y-89766766D01*
X148703674Y-89622603D01*
X148534156Y-89509335D01*
X148345798Y-89431314D01*
X148145839Y-89391540D01*
X147941961Y-89391540D01*
X147752360Y-89429254D01*
X147745950Y-89429885D01*
X147579127Y-89480492D01*
X147574560Y-89482933D01*
X147574560Y-89288385D01*
X147578841Y-89244919D01*
X147574560Y-89201453D01*
X147574560Y-89201443D01*
X147561755Y-89071430D01*
X147511149Y-88904607D01*
X147428971Y-88750861D01*
X147404770Y-88721372D01*
X147346092Y-88649873D01*
X147346090Y-88649871D01*
X147318377Y-88616103D01*
X147284609Y-88588390D01*
X146289297Y-87593079D01*
X146296280Y-87557975D01*
X146296280Y-87275305D01*
X146241133Y-86998066D01*
X146132960Y-86736913D01*
X145975917Y-86501881D01*
X145776039Y-86302003D01*
X145542152Y-86145725D01*
X145602794Y-86113311D01*
X145674377Y-85869342D01*
X144861280Y-85056245D01*
X144048183Y-85869342D01*
X144119766Y-86113311D01*
X144184272Y-86143834D01*
X144181553Y-86144960D01*
X143946521Y-86302003D01*
X143746643Y-86501881D01*
X143589600Y-86736913D01*
X143481427Y-86998066D01*
X143426280Y-87275305D01*
X143426280Y-87557975D01*
X143481427Y-87835214D01*
X143589600Y-88096367D01*
X143746643Y-88331399D01*
X143946521Y-88531277D01*
X144179039Y-88686640D01*
X143946521Y-88842003D01*
X143746643Y-89041881D01*
X143589600Y-89276913D01*
X143481427Y-89538066D01*
X143426280Y-89815305D01*
X143426280Y-90097975D01*
X143481427Y-90375214D01*
X143589600Y-90636367D01*
X143746643Y-90871399D01*
X143946521Y-91071277D01*
X144179039Y-91226640D01*
X143946521Y-91382003D01*
X143746643Y-91581881D01*
X143589600Y-91816913D01*
X143481427Y-92078066D01*
X143426280Y-92355305D01*
X143426280Y-92637975D01*
X143481427Y-92915214D01*
X143589600Y-93176367D01*
X143746643Y-93411399D01*
X143946521Y-93611277D01*
X144179039Y-93766640D01*
X143946521Y-93922003D01*
X143746643Y-94121881D01*
X143589600Y-94356913D01*
X143481427Y-94618066D01*
X143426280Y-94895305D01*
X143426280Y-95177975D01*
X143481427Y-95455214D01*
X143589600Y-95716367D01*
X143746643Y-95951399D01*
X143946521Y-96151277D01*
X144179039Y-96306640D01*
X143946521Y-96462003D01*
X143746643Y-96661881D01*
X143589600Y-96896913D01*
X143481427Y-97158066D01*
X143426280Y-97435305D01*
X143426280Y-97717975D01*
X143481427Y-97995214D01*
X143589600Y-98256367D01*
X143746643Y-98491399D01*
X143946521Y-98691277D01*
X144179039Y-98846640D01*
X143946521Y-99002003D01*
X143746643Y-99201881D01*
X143589600Y-99436913D01*
X143481427Y-99698066D01*
X143426280Y-99975305D01*
X143426280Y-100257975D01*
X143481427Y-100535214D01*
X143589600Y-100796367D01*
X143746643Y-101031399D01*
X143946521Y-101231277D01*
X144179039Y-101386640D01*
X143946521Y-101542003D01*
X143746643Y-101741881D01*
X143589600Y-101976913D01*
X143481427Y-102238066D01*
X143426280Y-102515305D01*
X143426280Y-102797975D01*
X143481427Y-103075214D01*
X143589600Y-103336367D01*
X143746643Y-103571399D01*
X143946521Y-103771277D01*
X144179039Y-103926640D01*
X143946521Y-104082003D01*
X143746643Y-104281881D01*
X143589600Y-104516913D01*
X143481427Y-104778066D01*
X143426280Y-105055305D01*
X143426280Y-105337975D01*
X143481427Y-105615214D01*
X143589600Y-105876367D01*
X143746643Y-106111399D01*
X143946521Y-106311277D01*
X144181553Y-106468320D01*
X144442706Y-106576493D01*
X144719945Y-106631640D01*
X145002615Y-106631640D01*
X145279854Y-106576493D01*
X145541007Y-106468320D01*
X145776039Y-106311277D01*
X145804560Y-106282756D01*
X145804560Y-110684606D01*
X145705479Y-110765920D01*
X145689560Y-110785317D01*
X145673640Y-110765919D01*
X145462747Y-110592843D01*
X145222140Y-110464236D01*
X144961066Y-110385040D01*
X144689560Y-110358299D01*
X144418053Y-110385040D01*
X144156979Y-110464236D01*
X143916372Y-110592843D01*
X143705479Y-110765920D01*
X143689531Y-110785353D01*
X143606457Y-110697260D01*
X143383460Y-110538610D01*
X143133796Y-110426513D01*
X143030745Y-110407682D01*
X142816560Y-110530344D01*
X142816560Y-111873000D01*
X142836560Y-111873000D01*
X142836560Y-112127000D01*
X142816560Y-112127000D01*
X142816560Y-112147000D01*
X142562560Y-112147000D01*
X142562560Y-112127000D01*
X142542560Y-112127000D01*
X142542560Y-111873000D01*
X142562560Y-111873000D01*
X142562560Y-110530344D01*
X142348375Y-110407682D01*
X142245324Y-110426513D01*
X142031729Y-110522416D01*
X142035175Y-84947152D01*
X143421063Y-84947152D01*
X143462493Y-85226770D01*
X143557677Y-85492932D01*
X143624609Y-85618154D01*
X143868578Y-85689737D01*
X144681675Y-84876640D01*
X145040885Y-84876640D01*
X145853982Y-85689737D01*
X146097951Y-85618154D01*
X146218851Y-85362644D01*
X146287580Y-85088456D01*
X146301497Y-84806128D01*
X146260067Y-84526510D01*
X146164883Y-84260348D01*
X146097951Y-84135126D01*
X145853982Y-84063543D01*
X145040885Y-84876640D01*
X144681675Y-84876640D01*
X143868578Y-84063543D01*
X143624609Y-84135126D01*
X143503709Y-84390636D01*
X143434980Y-84664824D01*
X143421063Y-84947152D01*
X142035175Y-84947152D01*
X142035392Y-83329342D01*
X144048183Y-83329342D01*
X144119766Y-83573311D01*
X144185916Y-83604611D01*
X144119766Y-83639969D01*
X144048183Y-83883938D01*
X144861280Y-84697035D01*
X145674377Y-83883938D01*
X145602794Y-83639969D01*
X145536644Y-83608669D01*
X145602794Y-83573311D01*
X145674377Y-83329342D01*
X144861280Y-82516245D01*
X144048183Y-83329342D01*
X142035392Y-83329342D01*
X142035517Y-82407152D01*
X143421063Y-82407152D01*
X143462493Y-82686770D01*
X143557677Y-82952932D01*
X143624609Y-83078154D01*
X143868578Y-83149737D01*
X144681675Y-82336640D01*
X143868578Y-81523543D01*
X143624609Y-81595126D01*
X143503709Y-81850636D01*
X143434980Y-82124824D01*
X143421063Y-82407152D01*
X142035517Y-82407152D01*
X142036313Y-76503956D01*
X143423208Y-76503023D01*
X143423208Y-78056640D01*
X143435468Y-78181122D01*
X143471778Y-78300820D01*
X143530743Y-78411134D01*
X143610095Y-78507825D01*
X143706786Y-78587177D01*
X143817100Y-78646142D01*
X143936798Y-78682452D01*
X143945241Y-78683283D01*
X143746643Y-78881881D01*
X143589600Y-79116913D01*
X143481427Y-79378066D01*
X143426280Y-79655305D01*
X143426280Y-79937975D01*
X143481427Y-80215214D01*
X143589600Y-80476367D01*
X143746643Y-80711399D01*
X143946521Y-80911277D01*
X144180408Y-81067555D01*
X144119766Y-81099969D01*
X144048183Y-81343938D01*
X144861280Y-82157035D01*
X144875423Y-82142893D01*
X145055028Y-82322498D01*
X145040885Y-82336640D01*
X145853982Y-83149737D01*
X146097951Y-83078154D01*
X146218851Y-82822644D01*
X146287580Y-82548456D01*
X146291053Y-82477992D01*
X156661041Y-92847980D01*
X156661041Y-92979265D01*
X156628835Y-93027464D01*
X156550814Y-93215822D01*
X156511040Y-93415781D01*
X156511040Y-93619659D01*
X156550814Y-93819618D01*
X156628835Y-94007976D01*
X156742103Y-94177494D01*
X156886266Y-94321657D01*
X157055784Y-94434925D01*
X157244142Y-94512946D01*
X157444101Y-94552720D01*
X157647979Y-94552720D01*
X157847938Y-94512946D01*
X158036296Y-94434925D01*
X158205814Y-94321657D01*
X158349977Y-94177494D01*
X158463245Y-94007976D01*
X158541266Y-93819618D01*
X158581040Y-93619659D01*
X158581040Y-93415781D01*
X158541266Y-93215822D01*
X158463245Y-93027464D01*
X158431040Y-92979266D01*
X158431040Y-92524869D01*
X158435321Y-92481400D01*
X158431040Y-92437931D01*
X158431040Y-92437923D01*
X158418235Y-92307910D01*
X158367629Y-92141087D01*
X158367629Y-92141086D01*
X158285451Y-91987341D01*
X158202572Y-91886353D01*
X158202570Y-91886351D01*
X158174857Y-91852583D01*
X158141089Y-91824870D01*
X146289297Y-79973079D01*
X146296280Y-79937975D01*
X146296280Y-79867152D01*
X158661063Y-79867152D01*
X158702493Y-80146770D01*
X158797677Y-80412932D01*
X158864609Y-80538154D01*
X159108578Y-80609737D01*
X159921675Y-79796640D01*
X160280885Y-79796640D01*
X161093982Y-80609737D01*
X161337951Y-80538154D01*
X161458851Y-80282644D01*
X161527580Y-80008456D01*
X161541497Y-79726128D01*
X161500067Y-79446510D01*
X161404883Y-79180348D01*
X161337951Y-79055126D01*
X161093982Y-78983543D01*
X160280885Y-79796640D01*
X159921675Y-79796640D01*
X159108578Y-78983543D01*
X158864609Y-79055126D01*
X158743709Y-79310636D01*
X158674980Y-79584824D01*
X158661063Y-79867152D01*
X146296280Y-79867152D01*
X146296280Y-79655305D01*
X146241133Y-79378066D01*
X146132960Y-79116913D01*
X145975917Y-78881881D01*
X145777319Y-78683283D01*
X145785762Y-78682452D01*
X145905460Y-78646142D01*
X146015774Y-78587177D01*
X146112465Y-78507825D01*
X146191817Y-78411134D01*
X146250782Y-78300820D01*
X146287092Y-78181122D01*
X146299352Y-78056640D01*
X146299352Y-76501088D01*
X158885921Y-76492622D01*
X158829600Y-76576913D01*
X158721427Y-76838066D01*
X158666280Y-77115305D01*
X158666280Y-77397975D01*
X158721427Y-77675214D01*
X158829600Y-77936367D01*
X158986643Y-78171399D01*
X159186521Y-78371277D01*
X159420408Y-78527555D01*
X159359766Y-78559969D01*
X159288183Y-78803938D01*
X160101280Y-79617035D01*
X160914377Y-78803938D01*
X160842794Y-78559969D01*
X160778288Y-78529446D01*
X160781007Y-78528320D01*
X161016039Y-78371277D01*
X161215917Y-78171399D01*
X161372960Y-77936367D01*
X161481133Y-77675214D01*
X161536280Y-77397975D01*
X161536280Y-77115305D01*
X161481133Y-76838066D01*
X161372960Y-76576913D01*
X161315547Y-76490988D01*
X163372934Y-76489604D01*
X163359190Y-110527713D01*
%TA.AperFunction,Conductor*%
D16*
G36*
X163359190Y-110527713D02*
G01*
X163133796Y-110426513D01*
X163030745Y-110407682D01*
X162816560Y-110530344D01*
X162816560Y-111873000D01*
X162836560Y-111873000D01*
X162836560Y-112127000D01*
X162816560Y-112127000D01*
X162816560Y-112147000D01*
X162562560Y-112147000D01*
X162562560Y-112127000D01*
X160816560Y-112127000D01*
X160816560Y-112147000D01*
X160562560Y-112147000D01*
X160562560Y-112127000D01*
X160542560Y-112127000D01*
X160542560Y-111873000D01*
X160562560Y-111873000D01*
X160562560Y-110530344D01*
X160816560Y-110530344D01*
X160816560Y-111873000D01*
X162562560Y-111873000D01*
X162562560Y-110530344D01*
X162348375Y-110407682D01*
X162245324Y-110426513D01*
X161995660Y-110538610D01*
X161772663Y-110697260D01*
X161689560Y-110785384D01*
X161606457Y-110697260D01*
X161383460Y-110538610D01*
X161133796Y-110426513D01*
X161030745Y-110407682D01*
X160816560Y-110530344D01*
X160562560Y-110530344D01*
X160348375Y-110407682D01*
X160245324Y-110426513D01*
X159995660Y-110538610D01*
X159772663Y-110697260D01*
X159689589Y-110785353D01*
X159673640Y-110765919D01*
X159574560Y-110684606D01*
X159574560Y-106957665D01*
X159578841Y-106914199D01*
X159574560Y-106870733D01*
X159574560Y-106870723D01*
X159561755Y-106740710D01*
X159511149Y-106573887D01*
X159464155Y-106485966D01*
X159682706Y-106576493D01*
X159959945Y-106631640D01*
X160242615Y-106631640D01*
X160519854Y-106576493D01*
X160781007Y-106468320D01*
X161016039Y-106311277D01*
X161215917Y-106111399D01*
X161372960Y-105876367D01*
X161481133Y-105615214D01*
X161536280Y-105337975D01*
X161536280Y-105055305D01*
X161481133Y-104778066D01*
X161372960Y-104516913D01*
X161215917Y-104281881D01*
X161016039Y-104082003D01*
X160783521Y-103926640D01*
X161016039Y-103771277D01*
X161215917Y-103571399D01*
X161372960Y-103336367D01*
X161481133Y-103075214D01*
X161536280Y-102797975D01*
X161536280Y-102515305D01*
X161481133Y-102238066D01*
X161372960Y-101976913D01*
X161215917Y-101741881D01*
X161016039Y-101542003D01*
X160783521Y-101386640D01*
X161016039Y-101231277D01*
X161215917Y-101031399D01*
X161372960Y-100796367D01*
X161481133Y-100535214D01*
X161536280Y-100257975D01*
X161536280Y-99975305D01*
X161481133Y-99698066D01*
X161372960Y-99436913D01*
X161215917Y-99201881D01*
X161016039Y-99002003D01*
X160783521Y-98846640D01*
X161016039Y-98691277D01*
X161215917Y-98491399D01*
X161372960Y-98256367D01*
X161481133Y-97995214D01*
X161536280Y-97717975D01*
X161536280Y-97435305D01*
X161481133Y-97158066D01*
X161372960Y-96896913D01*
X161215917Y-96661881D01*
X161016039Y-96462003D01*
X160783521Y-96306640D01*
X161016039Y-96151277D01*
X161215917Y-95951399D01*
X161372960Y-95716367D01*
X161481133Y-95455214D01*
X161536280Y-95177975D01*
X161536280Y-94895305D01*
X161481133Y-94618066D01*
X161372960Y-94356913D01*
X161215917Y-94121881D01*
X161016039Y-93922003D01*
X160783521Y-93766640D01*
X161016039Y-93611277D01*
X161215917Y-93411399D01*
X161372960Y-93176367D01*
X161481133Y-92915214D01*
X161536280Y-92637975D01*
X161536280Y-92355305D01*
X161481133Y-92078066D01*
X161372960Y-91816913D01*
X161215917Y-91581881D01*
X161016039Y-91382003D01*
X160783521Y-91226640D01*
X161016039Y-91071277D01*
X161215917Y-90871399D01*
X161372960Y-90636367D01*
X161481133Y-90375214D01*
X161536280Y-90097975D01*
X161536280Y-89815305D01*
X161481133Y-89538066D01*
X161372960Y-89276913D01*
X161215917Y-89041881D01*
X161016039Y-88842003D01*
X160783521Y-88686640D01*
X161016039Y-88531277D01*
X161215917Y-88331399D01*
X161372960Y-88096367D01*
X161481133Y-87835214D01*
X161536280Y-87557975D01*
X161536280Y-87275305D01*
X161481133Y-86998066D01*
X161372960Y-86736913D01*
X161215917Y-86501881D01*
X161016039Y-86302003D01*
X160783521Y-86146640D01*
X161016039Y-85991277D01*
X161215917Y-85791399D01*
X161372960Y-85556367D01*
X161481133Y-85295214D01*
X161536280Y-85017975D01*
X161536280Y-84735305D01*
X161481133Y-84458066D01*
X161372960Y-84196913D01*
X161215917Y-83961881D01*
X161016039Y-83762003D01*
X160783521Y-83606640D01*
X161016039Y-83451277D01*
X161215917Y-83251399D01*
X161372960Y-83016367D01*
X161481133Y-82755214D01*
X161536280Y-82477975D01*
X161536280Y-82195305D01*
X161481133Y-81918066D01*
X161372960Y-81656913D01*
X161215917Y-81421881D01*
X161016039Y-81222003D01*
X160782152Y-81065725D01*
X160842794Y-81033311D01*
X160914377Y-80789342D01*
X160101280Y-79976245D01*
X159288183Y-80789342D01*
X159359766Y-81033311D01*
X159424272Y-81063834D01*
X159421553Y-81064960D01*
X159186521Y-81222003D01*
X158986643Y-81421881D01*
X158829600Y-81656913D01*
X158721427Y-81918066D01*
X158666280Y-82195305D01*
X158666280Y-82477975D01*
X158721427Y-82755214D01*
X158829600Y-83016367D01*
X158986643Y-83251399D01*
X159186521Y-83451277D01*
X159419039Y-83606640D01*
X159186521Y-83762003D01*
X158986643Y-83961881D01*
X158829600Y-84196913D01*
X158721427Y-84458066D01*
X158666280Y-84735305D01*
X158666280Y-85017975D01*
X158721427Y-85295214D01*
X158829600Y-85556367D01*
X158986643Y-85791399D01*
X159186521Y-85991277D01*
X159419039Y-86146640D01*
X159186521Y-86302003D01*
X158986643Y-86501881D01*
X158829600Y-86736913D01*
X158721427Y-86998066D01*
X158666280Y-87275305D01*
X158666280Y-87557975D01*
X158721427Y-87835214D01*
X158829600Y-88096367D01*
X158986643Y-88331399D01*
X159186521Y-88531277D01*
X159419039Y-88686640D01*
X159186521Y-88842003D01*
X158986643Y-89041881D01*
X158829600Y-89276913D01*
X158721427Y-89538066D01*
X158666280Y-89815305D01*
X158666280Y-90097975D01*
X158721427Y-90375214D01*
X158829600Y-90636367D01*
X158986643Y-90871399D01*
X159186521Y-91071277D01*
X159419039Y-91226640D01*
X159186521Y-91382003D01*
X158986643Y-91581881D01*
X158829600Y-91816913D01*
X158721427Y-92078066D01*
X158666280Y-92355305D01*
X158666280Y-92637975D01*
X158721427Y-92915214D01*
X158829600Y-93176367D01*
X158986643Y-93411399D01*
X159186521Y-93611277D01*
X159419039Y-93766640D01*
X159186521Y-93922003D01*
X158986643Y-94121881D01*
X158829600Y-94356913D01*
X158721427Y-94618066D01*
X158666280Y-94895305D01*
X158666280Y-95177975D01*
X158721427Y-95455214D01*
X158829600Y-95716367D01*
X158986643Y-95951399D01*
X159186521Y-96151277D01*
X159419039Y-96306640D01*
X159186521Y-96462003D01*
X158986643Y-96661881D01*
X158829600Y-96896913D01*
X158721427Y-97158066D01*
X158666280Y-97435305D01*
X158666280Y-97717975D01*
X158721427Y-97995214D01*
X158829600Y-98256367D01*
X158841765Y-98274574D01*
X150094512Y-107021828D01*
X150060744Y-107049541D01*
X150033031Y-107083309D01*
X150033028Y-107083312D01*
X149950150Y-107184299D01*
X149867972Y-107338045D01*
X149817365Y-107504868D01*
X149800279Y-107678358D01*
X149804561Y-107721837D01*
X149804560Y-110684605D01*
X149705479Y-110765920D01*
X149689560Y-110785317D01*
X149673640Y-110765919D01*
X149574560Y-110684606D01*
X149574560Y-91115665D01*
X149578841Y-91072199D01*
X149574560Y-91028733D01*
X149574560Y-91028723D01*
X149561755Y-90898710D01*
X149511149Y-90731887D01*
X149428971Y-90578141D01*
X149318377Y-90443383D01*
X149284609Y-90415670D01*
X149050435Y-90181496D01*
X149039126Y-90124642D01*
X148961105Y-89936284D01*
X148847837Y-89766766D01*
X148703674Y-89622603D01*
X148534156Y-89509335D01*
X148345798Y-89431314D01*
X148145839Y-89391540D01*
X147941961Y-89391540D01*
X147752360Y-89429254D01*
X147745950Y-89429885D01*
X147579127Y-89480492D01*
X147574560Y-89482933D01*
X147574560Y-89288385D01*
X147578841Y-89244919D01*
X147574560Y-89201453D01*
X147574560Y-89201443D01*
X147561755Y-89071430D01*
X147511149Y-88904607D01*
X147428971Y-88750861D01*
X147404770Y-88721372D01*
X147346092Y-88649873D01*
X147346090Y-88649871D01*
X147318377Y-88616103D01*
X147284609Y-88588390D01*
X146289297Y-87593079D01*
X146296280Y-87557975D01*
X146296280Y-87275305D01*
X146241133Y-86998066D01*
X146132960Y-86736913D01*
X145975917Y-86501881D01*
X145776039Y-86302003D01*
X145542152Y-86145725D01*
X145602794Y-86113311D01*
X145674377Y-85869342D01*
X144861280Y-85056245D01*
X144048183Y-85869342D01*
X144119766Y-86113311D01*
X144184272Y-86143834D01*
X144181553Y-86144960D01*
X143946521Y-86302003D01*
X143746643Y-86501881D01*
X143589600Y-86736913D01*
X143481427Y-86998066D01*
X143426280Y-87275305D01*
X143426280Y-87557975D01*
X143481427Y-87835214D01*
X143589600Y-88096367D01*
X143746643Y-88331399D01*
X143946521Y-88531277D01*
X144179039Y-88686640D01*
X143946521Y-88842003D01*
X143746643Y-89041881D01*
X143589600Y-89276913D01*
X143481427Y-89538066D01*
X143426280Y-89815305D01*
X143426280Y-90097975D01*
X143481427Y-90375214D01*
X143589600Y-90636367D01*
X143746643Y-90871399D01*
X143946521Y-91071277D01*
X144179039Y-91226640D01*
X143946521Y-91382003D01*
X143746643Y-91581881D01*
X143589600Y-91816913D01*
X143481427Y-92078066D01*
X143426280Y-92355305D01*
X143426280Y-92637975D01*
X143481427Y-92915214D01*
X143589600Y-93176367D01*
X143746643Y-93411399D01*
X143946521Y-93611277D01*
X144179039Y-93766640D01*
X143946521Y-93922003D01*
X143746643Y-94121881D01*
X143589600Y-94356913D01*
X143481427Y-94618066D01*
X143426280Y-94895305D01*
X143426280Y-95177975D01*
X143481427Y-95455214D01*
X143589600Y-95716367D01*
X143746643Y-95951399D01*
X143946521Y-96151277D01*
X144179039Y-96306640D01*
X143946521Y-96462003D01*
X143746643Y-96661881D01*
X143589600Y-96896913D01*
X143481427Y-97158066D01*
X143426280Y-97435305D01*
X143426280Y-97717975D01*
X143481427Y-97995214D01*
X143589600Y-98256367D01*
X143746643Y-98491399D01*
X143946521Y-98691277D01*
X144179039Y-98846640D01*
X143946521Y-99002003D01*
X143746643Y-99201881D01*
X143589600Y-99436913D01*
X143481427Y-99698066D01*
X143426280Y-99975305D01*
X143426280Y-100257975D01*
X143481427Y-100535214D01*
X143589600Y-100796367D01*
X143746643Y-101031399D01*
X143946521Y-101231277D01*
X144179039Y-101386640D01*
X143946521Y-101542003D01*
X143746643Y-101741881D01*
X143589600Y-101976913D01*
X143481427Y-102238066D01*
X143426280Y-102515305D01*
X143426280Y-102797975D01*
X143481427Y-103075214D01*
X143589600Y-103336367D01*
X143746643Y-103571399D01*
X143946521Y-103771277D01*
X144179039Y-103926640D01*
X143946521Y-104082003D01*
X143746643Y-104281881D01*
X143589600Y-104516913D01*
X143481427Y-104778066D01*
X143426280Y-105055305D01*
X143426280Y-105337975D01*
X143481427Y-105615214D01*
X143589600Y-105876367D01*
X143746643Y-106111399D01*
X143946521Y-106311277D01*
X144181553Y-106468320D01*
X144442706Y-106576493D01*
X144719945Y-106631640D01*
X145002615Y-106631640D01*
X145279854Y-106576493D01*
X145541007Y-106468320D01*
X145776039Y-106311277D01*
X145804560Y-106282756D01*
X145804560Y-110684606D01*
X145705479Y-110765920D01*
X145689560Y-110785317D01*
X145673640Y-110765919D01*
X145462747Y-110592843D01*
X145222140Y-110464236D01*
X144961066Y-110385040D01*
X144689560Y-110358299D01*
X144418053Y-110385040D01*
X144156979Y-110464236D01*
X143916372Y-110592843D01*
X143705479Y-110765920D01*
X143689531Y-110785353D01*
X143606457Y-110697260D01*
X143383460Y-110538610D01*
X143133796Y-110426513D01*
X143030745Y-110407682D01*
X142816560Y-110530344D01*
X142816560Y-111873000D01*
X142836560Y-111873000D01*
X142836560Y-112127000D01*
X142816560Y-112127000D01*
X142816560Y-112147000D01*
X142562560Y-112147000D01*
X142562560Y-112127000D01*
X142542560Y-112127000D01*
X142542560Y-111873000D01*
X142562560Y-111873000D01*
X142562560Y-110530344D01*
X142348375Y-110407682D01*
X142245324Y-110426513D01*
X142031729Y-110522416D01*
X142035175Y-84947152D01*
X143421063Y-84947152D01*
X143462493Y-85226770D01*
X143557677Y-85492932D01*
X143624609Y-85618154D01*
X143868578Y-85689737D01*
X144681675Y-84876640D01*
X145040885Y-84876640D01*
X145853982Y-85689737D01*
X146097951Y-85618154D01*
X146218851Y-85362644D01*
X146287580Y-85088456D01*
X146301497Y-84806128D01*
X146260067Y-84526510D01*
X146164883Y-84260348D01*
X146097951Y-84135126D01*
X145853982Y-84063543D01*
X145040885Y-84876640D01*
X144681675Y-84876640D01*
X143868578Y-84063543D01*
X143624609Y-84135126D01*
X143503709Y-84390636D01*
X143434980Y-84664824D01*
X143421063Y-84947152D01*
X142035175Y-84947152D01*
X142035392Y-83329342D01*
X144048183Y-83329342D01*
X144119766Y-83573311D01*
X144185916Y-83604611D01*
X144119766Y-83639969D01*
X144048183Y-83883938D01*
X144861280Y-84697035D01*
X145674377Y-83883938D01*
X145602794Y-83639969D01*
X145536644Y-83608669D01*
X145602794Y-83573311D01*
X145674377Y-83329342D01*
X144861280Y-82516245D01*
X144048183Y-83329342D01*
X142035392Y-83329342D01*
X142035517Y-82407152D01*
X143421063Y-82407152D01*
X143462493Y-82686770D01*
X143557677Y-82952932D01*
X143624609Y-83078154D01*
X143868578Y-83149737D01*
X144681675Y-82336640D01*
X143868578Y-81523543D01*
X143624609Y-81595126D01*
X143503709Y-81850636D01*
X143434980Y-82124824D01*
X143421063Y-82407152D01*
X142035517Y-82407152D01*
X142036313Y-76503956D01*
X143423208Y-76503023D01*
X143423208Y-78056640D01*
X143435468Y-78181122D01*
X143471778Y-78300820D01*
X143530743Y-78411134D01*
X143610095Y-78507825D01*
X143706786Y-78587177D01*
X143817100Y-78646142D01*
X143936798Y-78682452D01*
X143945241Y-78683283D01*
X143746643Y-78881881D01*
X143589600Y-79116913D01*
X143481427Y-79378066D01*
X143426280Y-79655305D01*
X143426280Y-79937975D01*
X143481427Y-80215214D01*
X143589600Y-80476367D01*
X143746643Y-80711399D01*
X143946521Y-80911277D01*
X144180408Y-81067555D01*
X144119766Y-81099969D01*
X144048183Y-81343938D01*
X144861280Y-82157035D01*
X144875423Y-82142893D01*
X145055028Y-82322498D01*
X145040885Y-82336640D01*
X145853982Y-83149737D01*
X146097951Y-83078154D01*
X146218851Y-82822644D01*
X146287580Y-82548456D01*
X146291053Y-82477992D01*
X156661041Y-92847980D01*
X156661041Y-92979265D01*
X156628835Y-93027464D01*
X156550814Y-93215822D01*
X156511040Y-93415781D01*
X156511040Y-93619659D01*
X156550814Y-93819618D01*
X156628835Y-94007976D01*
X156742103Y-94177494D01*
X156886266Y-94321657D01*
X157055784Y-94434925D01*
X157244142Y-94512946D01*
X157444101Y-94552720D01*
X157647979Y-94552720D01*
X157847938Y-94512946D01*
X158036296Y-94434925D01*
X158205814Y-94321657D01*
X158349977Y-94177494D01*
X158463245Y-94007976D01*
X158541266Y-93819618D01*
X158581040Y-93619659D01*
X158581040Y-93415781D01*
X158541266Y-93215822D01*
X158463245Y-93027464D01*
X158431040Y-92979266D01*
X158431040Y-92524869D01*
X158435321Y-92481400D01*
X158431040Y-92437931D01*
X158431040Y-92437923D01*
X158418235Y-92307910D01*
X158367629Y-92141087D01*
X158367629Y-92141086D01*
X158285451Y-91987341D01*
X158202572Y-91886353D01*
X158202570Y-91886351D01*
X158174857Y-91852583D01*
X158141089Y-91824870D01*
X146289297Y-79973079D01*
X146296280Y-79937975D01*
X146296280Y-79867152D01*
X158661063Y-79867152D01*
X158702493Y-80146770D01*
X158797677Y-80412932D01*
X158864609Y-80538154D01*
X159108578Y-80609737D01*
X159921675Y-79796640D01*
X160280885Y-79796640D01*
X161093982Y-80609737D01*
X161337951Y-80538154D01*
X161458851Y-80282644D01*
X161527580Y-80008456D01*
X161541497Y-79726128D01*
X161500067Y-79446510D01*
X161404883Y-79180348D01*
X161337951Y-79055126D01*
X161093982Y-78983543D01*
X160280885Y-79796640D01*
X159921675Y-79796640D01*
X159108578Y-78983543D01*
X158864609Y-79055126D01*
X158743709Y-79310636D01*
X158674980Y-79584824D01*
X158661063Y-79867152D01*
X146296280Y-79867152D01*
X146296280Y-79655305D01*
X146241133Y-79378066D01*
X146132960Y-79116913D01*
X145975917Y-78881881D01*
X145777319Y-78683283D01*
X145785762Y-78682452D01*
X145905460Y-78646142D01*
X146015774Y-78587177D01*
X146112465Y-78507825D01*
X146191817Y-78411134D01*
X146250782Y-78300820D01*
X146287092Y-78181122D01*
X146299352Y-78056640D01*
X146299352Y-76501088D01*
X158885921Y-76492622D01*
X158829600Y-76576913D01*
X158721427Y-76838066D01*
X158666280Y-77115305D01*
X158666280Y-77397975D01*
X158721427Y-77675214D01*
X158829600Y-77936367D01*
X158986643Y-78171399D01*
X159186521Y-78371277D01*
X159420408Y-78527555D01*
X159359766Y-78559969D01*
X159288183Y-78803938D01*
X160101280Y-79617035D01*
X160914377Y-78803938D01*
X160842794Y-78559969D01*
X160778288Y-78529446D01*
X160781007Y-78528320D01*
X161016039Y-78371277D01*
X161215917Y-78171399D01*
X161372960Y-77936367D01*
X161481133Y-77675214D01*
X161536280Y-77397975D01*
X161536280Y-77115305D01*
X161481133Y-76838066D01*
X161372960Y-76576913D01*
X161315547Y-76490988D01*
X163372934Y-76489604D01*
X163359190Y-110527713D01*
G37*
%TD.AperFunction*%
%TD*%
M02*
